<svg xmlns="http://www.w3.org/2000/svg" width="760" height="420" viewBox="0 0 760 420" font-family="DejaVu Sans, sans-serif">
<rect width="760" height="420" fill="#ffffff"/>
<text x="40" y="46" font-size="23" font-weight="bold" fill="#2D2D3B">Standoff driver — two readings, pick one</text>
<rect x="60" y="80" width="280" height="280" fill="#F3F2F2" stroke="#B9BDCB" stroke-width="1.5"/>
<g transform="translate(70,90) scale(13.0)"><path d="M 18.0000,10.0000 L 14.0000,16.9282 L 6.0000,16.9282 L 2.0000,10.0000 L 6.0000,3.0718 L 14.0000,3.0718 Z M 12.3000,6.0163 L 7.7000,6.0163 L 5.4000,10.0000 L 7.7000,13.9837 L 12.3000,13.9837 L 14.6000,10.0000 Z" fill="#2D2D3B"/></g>
<text x="200" y="386" font-size="16" font-weight="bold" fill="#2D2D3B" text-anchor="middle">standoff</text>
<text x="200" y="406" font-size="13" fill="#6b7280" text-anchor="middle">the TIP, end-on — matches the rest of the set</text>
<rect x="420" y="80" width="280" height="280" fill="#F3F2F2" stroke="#B9BDCB" stroke-width="1.5"/>
<g transform="translate(430,90) scale(13.0)"><path d="M 7.5000,2.0000 L 12.5000,2.0000 L 12.5000,12.0000 L 13.6000,13.5000 L 13.6000,18.6000 L 6.4000,18.6000 L 6.4000,13.5000 L 7.5000,12.0000 Z M 8.9000,14.2000 L 8.9000,18.6000 L 11.1000,18.6000 L 11.1000,14.2000 Z" fill="#2D2D3B"/></g>
<text x="560" y="386" font-size="16" font-weight="bold" fill="#2D2D3B" text-anchor="middle">standoff-driver</text>
<text x="560" y="406" font-size="13" fill="#6b7280" text-anchor="middle">the TOOL, from the side — bore open at the end</text>
</svg>