<?xml version="1.0" encoding="UTF-8" standalone="no"?>
<svg
   xmlns:svg="http://www.w3.org/2000/svg"
   xmlns="http://www.w3.org/2000/svg"
   width="1100.0"
   height="640.0"

>
    <g transform="scale(8.869442433605675, -8.869442433605675)   translate(55.1215098900844,-15.048908751257045)" stroke-width="0.5"  fill="none">
       <!-- hidden lines -->
       <g  stroke="rgb(160,160,160)" fill="none" stroke-dasharray="0.5,0.5" >

       </g>

       <!-- solid lines -->
       <g  stroke="rgb(0,0,0)" fill="none">
			<path d="M34.19705644406648,-18.91744438662272 L27.813605907840746,-19.90181750908178 " />
			<path d="M34.19705644406648,-18.91744438662272 L42.404349990642444,-25.16743246572787 " />
			<path d="M42.404349990642444,-25.16743246572787 L29.637448918190955,-27.136178710645993 " />
			<path d="M28.999103864568383,-23.476810690329927 L28.954208776435525,-23.44005659890854 L28.915042851895087,-23.40254102859948 L28.88171548860612,-23.3643687673177 L28.85431977604804,-23.325646437237292 L28.832932235504515,-23.286482196976085 L28.8176126063254,-23.246985439488626 L28.80840367906369,-23.20726648651147 L28.80533117595362,-23.16743628041423 " />
			<path d="M28.80533117595362,-23.167436280414222 L28.807981172302238,-23.130444103383308 L28.815924777274784,-23.093541043746992 L28.8291428540311,-23.05681600420827 L28.84760355906651,-23.020357458604114 L28.87126241892562,-22.984253238764285 L28.900062437342758,-22.94859032291673 L28.93393423255097,-22.913454626149427 L28.972796204428786,-22.878930793433415 L29.016554731082042,-22.845101995705637 L29.065104394387237,-22.812049729502867 L29.11832823395302,-22.77985362062943 L29.176098028888017,-22.74859123233165 L29.238274606696198,-22.71833787844119 L29.304708178555597,-22.689166441937456 L29.37523870017271,-22.661147199366106 L29.449696257343213,-22.634347651536686 L29.52790147529018,-22.60883236090728 L29.609665950793598,-22.58466279604789 L29.694792706070263,-22.56189718355727 L29.783076663310492,-22.54059036778994 L29.87430513872853,-22.520793678731334 L29.968258354936424,-22.50255480833939 L30.16342762475042,-22.470922420926104 L30.3667048859938,-22.445997842732897 L30.576132467518136,-22.428021111072926 L30.789693467228584,-22.41716535169916 L31.005331175953618,-22.413535111508732 L31.22096888467865,-22.41716535169916 L31.4345298843891,-22.428021111072926 L31.643957465913434,-22.445997842732897 L31.847234727156817,-22.470922420926104 L32.04240399697081,-22.50255480833939 L32.136357213178705,-22.520793678731334 L32.22758568859674,-22.54059036778994 L32.31586964583697,-22.56189718355727 L32.40099640111364,-22.58466279604789 L32.48276087661706,-22.60883236090728 L32.56096609456402,-22.634347651536686 L32.63542365173453,-22.661147199366106 L32.70595417335164,-22.689166441937456 L32.772387745211034,-22.71833787844119 L32.834564323019215,-22.74859123233165 L32.89233411795421,-22.77985362062943 L32.94555795752,-22.812049729502867 L32.99410762082519,-22.845101995705637 L33.03786614747845,-22.878930793433415 L33.07672811935626,-22.913454626149427 L33.110599914564474,-22.94859032291673 L33.13939993298162,-22.984253238764285 L33.16305879284072,-23.020357458604114 L33.18151949787614,-23.05681600420827 L33.19473757463245,-23.093541043746992 L33.202681179604994,-23.130444103383308 L33.20533117595362,-23.16743628041422 " />
			<path d="M33.20533117595362,-23.167436280414222 L33.20334644166056,-23.199452591338474 L33.19739581984519,-23.23141113510797 L33.1874900472377,-23.263254248797463 L33.17364699686225,-23.294924477752645 L33.15589164578867,-23.32636467925581 L33.13425603006619,-23.357518125628683 L33.10877918692069,-23.388328606586384 L33.07950708431971,-23.41874053065788 L33.04649253803219,-23.448699025489876 L33.00979511633286,-23.478150036853222 L32.969481032522914,-23.507040426173173 L32.9256230254611,-23.535318066407534 L32.87830022832074,-23.562931936099663 L32.827598025809394,-23.5898322114367 L32.773607900108935,-23.615970356146878 L32.716427265813884,-23.641299209073676 L32.592912726901304,-23.68934777845111 L32.45794543802697,-23.733631299106722 L32.31249904782742,-23.773830311489483 L32.157622800758055,-23.809654821528053 L31.994433967885428,-23.840846392636468 L31.82410978693843,-23.867180010065344 L31.64787896976222,-23.88846570414929 L31.46701283844006,-23.904549920740518 L31.282816154026477,-23.915316628942325 L31.096617704053127,-23.920688158151343 L30.90976071670853,-23.9206257583702 L30.723593170843525,-23.915129879748417 L30.53945807170564,-23.904240169335086 L30.358683762552793,-23.88803518506661 L30.182574342038063,-23.8666318290529 L30.012400256494022,-23.840184504250214 L29.849389134983596,-23.808884000604394 L29.694716933232986,-23.772956118699803 L29.549499450333975,-23.73266004084293 L29.414784279413812,-23.68828646133156 L29.29154325034019,-23.640155489397724 L29.234506781977167,-23.61478849434785 L29.18066541897935,-23.588614339952453 L29.130116307528116,-23.56168025234047 L29.082950653582543,-23.534034828791285 L29.039253558316123,-23.50572795005051 L28.999103864568394,-23.476810690329934 " />
			<path d="M19.606312361264784,10.539042398391064 L-36.02089945441671,1.9609337598192393 " />
			<path d="M15.95862634056436,-1.2968725264143188 L15.95862634056436,-25.48774435478201 " />
			<path d="M-36.02089945441671,1.9609337598192402 L-36.02089945441671,-27.86664606739141 " />
			<path d="M-36.02089945441671,-27.86664606739141 L-36.02309635319756,-27.95917822880953 L-36.029681757018544,-28.052165026738198 L-36.04063980106503,-28.145382447836514 L-36.05594408644911,-28.238605923172173 L-36.07555774380679,-28.331610869227678 L-36.09943352211954,-28.424173228941715 L-36.12751390254614,-28.51607001148222 L-36.15973123699058,-28.607079829450853 L-36.19600791107229,-28.696983432224606 L-36.236256531105944,-28.78556423414977 L-36.28038013464052,-28.87260883631575 L-36.32827242405032,-28.957907540651714 L-36.3798180226153,-29.041254855107635 L-36.43489275247364,-29.12244998870263 L-36.49336393377715,-29.201297335248015 L-36.55509070432859,-29.277606944579748 L-36.61992435893109,-29.351194980165015 L-36.687708707631934,-29.42188416198054 L-36.758280451997905,-29.489504193595693 L-36.831469578515474,-29.553892172431496 L-36.907099768168244,-29.61489298220721 L-36.98498882120492,-29.672359666629045 L-37.064949096074464,-29.726153783420745 L-37.14678796147102,-29.77614573784315 L-37.23030826039961,-29.82221509489928 L-37.315308785144595,-29.864250869472784 L-37.40158476199671,-29.902151793700817 L-37.48892834457083,-29.935826560937187 L-37.57712911452614,-29.965194045718054 L-37.66597458848233,-29.9901834992003 L-37.75525072991071,-30.010734719601665 L-37.84474246476691,-30.02679819723213 " />
			<path d="M-37.84474246476692,-30.02679819723213 L-50.61164353721841,-31.99554444215025 " />
			<path d="M-50.611643537218406,-31.995544442150255 L-50.611643537218406,-35.75334977471223 " />
			<path d="M29.63744891819096,-27.136178710645993 L29.554647291461077,-27.147009987121287 L29.47201641667532,-27.15394429010287 L29.38972669365639,-27.156967319802664 L29.307947818710286,-27.156072842186163 L29.226848434681802,-27.151262701828134 L29.146595783182452,-27.142546818108794 L29.067355359707985,-27.12994316475823 L28.98929057235672,-27.113477732791328 L28.912562404852455,-27.093184476909585 L28.837329084566896,-27.069105245480372 L28.763745756226168,-27.041289694238024 L28.691964161974305,-27.009795183884734 L28.622132328453468,-26.974686661802384 L28.554394261546232,-26.9360365281193 L28.488889649409366,-26.893924486408082 L28.42575357441158,-26.848437379322394 " />
			<path d="M28.425753574411576,-26.84843737932239 L28.35555330372931,-26.791480737818304 L28.288920461765816,-26.730254508508352 L28.22604048320966,-26.664929079844068 L28.167088358784575,-26.595686248071306 L28.112228148262155,-26.522718711303582 L28.061612523894592,-26.446229533256286 L28.01538234553814,-26.366431578134076 L27.973666268649673,-26.283546918244244 L27.93658038624725,-26.197806215984492 L27.904227905831128,-26.109448081925102 L27.876698862164233,-26.01871841077187 L27.854069866711555,-25.92586969705779 L27.836403894435595,-25.831160332467853 L27.82375010854132,-25.734853886752486 L27.816143723658296,-25.637218374230766 L27.813605907840746,-25.53852550792475 " />
			<path d="M42.404349990642444,-28.925237798289846 L42.404349990642444,-25.167432465727874 " />
			<path d="M27.813605907840746,-25.53852550792474 L27.813605907840746,4.289054319285913 " />
			<path d="M24.16591988714032,-31.737732433887167 L42.404349990642444,-28.92523779828985 " />
			<path d="M27.813605907840746,4.289054319285912 L-27.813605907840746,-4.289054319285913 " />
			<path d="M24.16591988714032,-1.9101526066765104 L24.16591988714032,-31.737732433887164 " />
			<path d="M-27.813605907840746,-4.289054319285912 L-27.813605907840746,-34.116634146496565 " />
			<path d="M22.342076876790106,-0.312499403955256 L22.424878503519988,-0.3016681274799642 L22.507509378305745,-0.2947338244983788 L22.589799101324676,-0.29171079479858375 L22.67157797627078,-0.2926052724150876 L22.752677360299263,-0.297415412773115 L22.832930011798613,-0.30613129649245496 L22.91217043527308,-0.31873494984301765 L22.990235222624346,-0.33520038180992073 L23.066963390128613,-0.35549363769166487 L23.14219671041417,-0.3795728691208784 L23.215780038754897,-0.407388420363225 L23.287561633006764,-0.4388829307165163 L23.357393466527597,-0.47399145279886645 L23.425131533434836,-0.5126415864819494 L23.490636145571703,-0.5547536281931693 L23.553772220569478,-0.6002407352788501 " />
			<path d="M23.553772220569492,-0.6002407352788597 L23.623972491251756,-0.6571973767829444 L23.69060533321525,-0.7184236060928983 L23.753485311771406,-0.7837490347571823 L23.81243743619649,-0.8529918665299447 L23.86729764671891,-0.9259594032976661 L23.917913271086473,-1.0024485813449655 L23.964143449442926,-1.0822465364671734 L24.005859526331395,-1.165131196357005 L24.042945408733814,-1.250871898616757 L24.07529788914994,-1.3392300326761468 L24.102826932816832,-1.4299597038293779 L24.12545592826951,-1.522808417543458 L24.14312190054547,-1.6175177821333957 L24.155775686439746,-1.7138242278487659 L24.16338207132277,-1.8114597403704833 L24.16591988714032,-1.910152606676508 " />
			<path d="M-27.813605907840746,-34.116634146496565 L-27.8158028066216,-34.209166307914685 L-27.822388210442586,-34.30215310584335 L-27.833346254489076,-34.39537052694167 L-27.84865053987315,-34.488594002277324 L-27.868264197230832,-34.58159894833283 L-27.892139975543582,-34.67416130804687 L-27.92022035597018,-34.76605809058738 L-27.952437690414627,-34.85706790855601 L-27.988714364496335,-34.946971511329764 L-28.02896298452999,-35.035552313254925 L-28.07308658806456,-35.1225969154209 L-28.12097887747436,-35.20789561975687 L-28.172524476039335,-35.29124293421279 L-28.227599205897683,-35.372438067807785 L-28.286070387201192,-35.45128541435317 L-28.347797157752638,-35.5275950236849 L-28.41263081235513,-35.60118305927017 L-28.480415161055976,-35.671872241085694 L-28.55098690542195,-35.73949227270085 L-28.624176031939516,-35.80388025153665 L-28.699806221592286,-35.86488106131236 L-28.777695274628964,-35.9223477457342 L-28.857655549498507,-35.9761418625259 L-28.939494414895062,-36.02613381694831 L-29.02301471382365,-36.072203174004436 L-29.10801523856864,-36.11423894857794 L-29.194291215420755,-36.152139872805975 L-29.281634797994872,-36.18581464004234 L-29.369835567950176,-36.21518212482321 L-29.458681041906374,-36.24017157830546 L-29.547957183334756,-36.26072279870682 L-29.637448918190948,-36.27678627633728 " />
			<path d="M-22.342076876790106,-7.203111261168688 L22.34207687679011,-0.3124994039552558 " />
			<path d="M-29.63744891819096,-36.27678627633728 L-42.404349990642444,-38.245532521255406 " />
			<path d="M-24.16591988714032,-9.363263391009406 L-24.163722988359464,-9.270731229591284 L-24.15713758453848,-9.177744431662619 L-24.14617954049199,-9.084527010564305 L-24.130875255107913,-8.991303535228646 L-24.111261597750232,-8.898298589173137 L-24.087385819437483,-8.805736229459104 L-24.059305439010885,-8.713839446918596 L-24.027088104566438,-8.622829628949964 L-23.99081143048473,-8.532926026176211 L-23.950562810451075,-8.444345224251048 L-23.906439206916506,-8.35730062208507 L-23.858546917506704,-8.272001917749105 L-23.80700131894173,-8.188654603293179 L-23.751926589083382,-8.107459469698183 L-23.693455407779872,-8.0286121231528 L-23.631728637228427,-7.95230251382107 L-23.566894982625936,-7.878714478235803 L-23.49911063392509,-7.808025296420276 L-23.428538889559114,-7.7404052648051245 L-23.355349763041545,-7.676017285969323 L-23.279719573388775,-7.615016476193608 L-23.2018305203521,-7.557549791771771 L-23.121870245482558,-7.50375567498007 L-23.040031380086003,-7.453763720557665 L-22.956511081157416,-7.407694363501536 L-22.871510556412424,-7.365658588928032 L-22.78523457956031,-7.327757664699999 L-22.697890996986196,-7.294082897463632 L-22.60969022703089,-7.264715412682762 L-22.52084475307469,-7.239725959200517 L-22.43156861164631,-7.219174738799152 L-22.342076876790124,-7.203111261168691 " />
			<path d="M-42.404349990642444,-38.245532521255406 L-42.404349990642444,-42.00333785381738 " />
			<path d="M-24.16591988714032,-39.19084321822006 L-24.16591988714032,-9.363263391009408 " />
			<path d="M-42.404349990642444,-42.00333785381738 L-24.16591988714032,-39.19084321822006 " />
			<path d="M19.606312361264784,10.539042398391064 L27.813605907840746,4.289054319285912 " />
			<path d="M15.95862634056436,-25.487744354782016 L24.16591988714032,-31.737732433887167 " />
			<path d="M-36.02089945441671,1.9609337598192402 L-27.813605907840746,-4.2890543192859125 " />
			<path d="M-50.611643537218406,-31.995544442150255 L-42.404349990642444,-38.245532521255406 " />
			<path d="M-41.21885203391481,-34.30491503737961 L-41.26374712204767,-34.26816094595822 L-41.3029130465881,-34.23064537564916 L-41.33624040987707,-34.19247311436738 L-41.36363612243515,-34.15375078428698 L-41.38502366297868,-34.11458654402577 L-41.40034329215779,-34.07508978653831 L-41.4095522194195,-34.03537083356115 L-41.41262472252958,-33.99554062746391 " />
			<path d="M-41.41262472252958,-33.9955406274639 L-41.409974726180955,-33.958548450432986 L-41.40203112120841,-33.92164539079668 L-41.38881304445209,-33.884920351257946 L-41.370352339416684,-33.8484618056538 L-41.34669347955757,-33.81235758581396 L-41.317893461140436,-33.77669466996641 L-41.28402166593222,-33.74155897319911 L-41.24515969405441,-33.7070351404831 L-41.20140116740115,-33.673206342755314 L-41.152851504095956,-33.64015407655255 L-41.099627664530175,-33.60795796767911 L-41.04185786959518,-33.57669557938133 L-40.979681291786996,-33.54644222549087 L-40.9132477199276,-33.51727078898714 L-40.84271719831049,-33.48925154641579 L-40.76825964113998,-33.46245199858637 L-40.69005442319302,-33.43693670795696 L-40.6082899476896,-33.412767143097575 L-40.52316319241293,-33.39000153060695 L-40.4348792351727,-33.36869471483962 L-40.34365075975467,-33.34889802578102 L-40.24969754354677,-33.33065915538907 L-40.05452827373277,-33.29902676797579 L-39.85125101248939,-33.27410218978258 L-39.64182343096506,-33.25612545812261 L-39.42826243125461,-33.24526969874884 L-39.212624722529576,-33.24163945855841 L-38.99698701380454,-33.24526969874884 L-38.7834260140941,-33.25612545812261 L-38.57399843256976,-33.27410218978258 L-38.37072117132638,-33.29902676797579 L-38.17555190151238,-33.33065915538907 L-38.081598685304485,-33.34889802578102 L-37.99037020988645,-33.36869471483962 L-37.90208625264622,-33.39000153060695 L-37.81695949736955,-33.412767143097575 L-37.73519502186613,-33.43693670795696 L-37.656989803919174,-33.46245199858637 L-37.58253224674866,-33.48925154641579 L-37.512001725131555,-33.51727078898714 L-37.445568153272156,-33.54644222549087 L-37.383391575463975,-33.57669557938133 L-37.32562178052898,-33.60795796767911 L-37.272397940963195,-33.64015407655255 L-37.223848277658,-33.673206342755314 L-37.18008975100474,-33.7070351404831 L-37.14122777912693,-33.74155897319911 L-37.107355983918715,-33.77669466996641 L-37.07855596550158,-33.81235758581396 L-37.05489710564247,-33.8484618056538 L-37.03643640060706,-33.884920351257946 L-37.02321832385074,-33.92164539079668 L-37.015274718878196,-33.958548450432986 L-37.01262472252957,-33.9955406274639 " />
			<path d="M-37.01262472252957,-33.9955406274639 L-37.01460945682264,-34.02755693838815 L-37.020560078638,-34.05951548215765 L-37.03046585124549,-34.09135859584714 L-37.04430890162094,-34.123028824802326 L-37.06206425269452,-34.15446902630549 L-37.08369986841701,-34.18562247267836 L-37.1091767115625,-34.216432953636065 L-37.13844881416349,-34.24684487770756 L-37.171463360451,-34.276803372539554 L-37.20816078215033,-34.3062543839029 L-37.248474865960276,-34.33514477322286 L-37.29233287302209,-34.363422413457215 L-37.33965567016246,-34.39103628314934 L-37.3903578726738,-34.41793655848638 L-37.444347998374255,-34.444074703196556 L-37.50152863266931,-34.46940355612336 L-37.62504317158189,-34.51745212550079 L-37.76001046045623,-34.56173564615641 L-37.90545685065577,-34.601934658539165 L-38.06033309772514,-34.63775916857774 L-38.22352193059776,-34.66895073968615 L-38.39384611154477,-34.69528435711502 L-38.57007692872097,-34.71657005119897 L-38.750943060043134,-34.732654267790195 L-38.93513974445672,-34.743420975992 L-39.121338194430066,-34.748792505201024 L-39.308195181774664,-34.74873010541988 L-39.49436272763967,-34.7432342267981 L-39.67849782677756,-34.732344516384764 L-39.859272135930404,-34.71613953211629 L-40.03538155644513,-34.69473617610258 L-40.20555564198917,-34.66828885129989 L-40.3685667634996,-34.636988347654075 L-40.52323896525021,-34.601060465749484 L-40.66845644814922,-34.56076438789261 L-40.80317161906938,-34.516390808381246 L-40.92641264814301,-34.46825983644741 L-40.98344911650602,-34.44289284139753 L-41.037290479503845,-34.41671868700214 L-41.08783959095508,-34.38978459939015 L-41.135005244900654,-34.362139175840966 L-41.17870234016707,-34.33383229710019 L-41.2188520339148,-34.304915037379615 " />
			<path d="M-50.611643537218406,-35.75334977471223 L-42.404349990642444,-42.00333785381738 " />
			<path d="M27.826184135498334,-25.756870996636582 L29.637448918190962,-27.136178710645993 " />
			<path d="M22.114096500496327,-0.34765558690022313 L24.16591988714032,-1.9101526066765118 " />
			<path d="M-36.02089945441671,-27.86664606739141 L-27.813605907840746,-34.116634146496565 " />
			<path d="M-37.84474246476692,-30.02679819723213 L-29.637448918190955,-36.27678627633728 " />

       </g>
    </g>
    
</svg>
